{"title":"Kya Dilli Kya Lahore  (2014) PreDvDRip - Xvid {VikkyMaxx}[Silver","uid":10095802,"size":740390922,"categoryP":"video","categoryS":"movies","magnet":"?xt=urn:btih:002d4b40494af69bd7ef9616bd0135d63385eb96&amp;dn=Kya+Dilli+Kya+Lahore++%282014%29+PreDvDRip+-+Xvid+%7BVikkyMaxx%7D%5BSilver&amp;tr=udp%3A%2F%2Ftracker.openbittorrent.com%3A80&amp;tr=udp%3A%2F%2Fopen.demonii.com%3A1337&amp;tr=udp%3A%2F%2Ftracker.coppersurfer.tk%3A6969&amp;tr=udp%3A%2F%2Fexodus.desync.com%3A6969","seeders":1,"leechers":0,"uploader":"shailendramaxx","files":22,"time":1399248388,"description":"VikkyMaxx SilverRG Presents\n\n\n\nGeneral:-\n \nComplete name : Kya Dilli Kya Lahore (2014) PreDvDRip - Xvid {VikkyMaxx}[SilverRG]\nFormat : AVI \nFormat/Info : Audio Video Interleave \nFile size : 692 MiB \nDuration : 1h 29mn \nOverall bit rate : 1 078 Kbps \n\nVideo:-\n \nID : 0 \nFormat : MPEG-4 Visual \nFormat profile : Advanced Simple@L5 \nFormat settings, BVOP : 2 \nFormat settings, QPel : No \nFormat settings, GMC : No warppoints \nFormat settings, Matrix : Default (H.263) \nCodec ID : XVID \nCodec ID/Hint : XviD \nDuration : 1h 29mn \nBit rate : 992 Kbps \nWidth : 640 pixels \nHeight : 272 pixels \nDisplay aspect ratio : 2.35:1 \nFrame rate : 25.000 fps \nColor space : YUV \nChroma subsampling : 4:2:0 \nBit depth : 8 bits \nScan type : Progressive \nCompression mode : Lossy \nBits/(Pixel*Frame) : 0.228 \nStream size : 637 MiB (92%) \nWriting library : XviD 1.2.1 (UTC 2008-12-04) \n\nAudio:-\n \nID : 1 \nFormat : MPEG Audio \nFormat version : Version 1 \nFormat profile : Layer 3 \nMode : Joint stereo \nMode extension : MS Stereo \nCodec ID : 55 \nCodec ID/Hint : MP3 \nDuration : 1h 29mn \nBit rate mode : Constant \nBit rate : 80.0 Kbps \nChannel(s) : 2 channels \nSampling rate : 32.0 KHz \nCompression mode : Lossy \nStream size : 51.4 MiB (7%) \nAlignment : Aligned on interleaves \nInterleave, duration : 160 ms (4.00 video frames) \nInterleave, preload duration : 216 ms \nTitle : VTS_01_1 T80 2_0ch 192Kbps DELAY 0ms \nWriting library : LAME3.99r \nEncoding settings : -m j -V 4 -q 2 -lowpass 13.5 -b 80 \nLanguage: HINDI\n\n\n\nSCREENS:-\n &lt;a href=&quot;\nhttp://i.imgur.com/Uz90pST.png&quot; rel=&quot;nofollow&quot; target=&quot;_NEW&quot;&gt;\nhttp://i.imgur.com/Uz90pST.png&lt;/a&gt;\n &lt;a href=&quot;\nhttp://i.imgur.com/TxUe6oW.png&quot; rel=&quot;nofollow&quot; target=&quot;_NEW&quot;&gt;\nhttp://i.imgur.com/TxUe6oW.png&lt;/a&gt;\n &lt;a href=&quot;\nhttp://i.imgur.com/eT4Svc1.png&quot; rel=&quot;nofollow&quot; target=&quot;_NEW&quot;&gt;\nhttp://i.imgur.com/eT4Svc1.png&lt;/a&gt;\n &lt;a href=&quot;\nhttp://i.imgur.com/Ooro47i.png&quot; rel=&quot;nofollow&quot; target=&quot;_NEW&quot;&gt;\nhttp://i.imgur.com/Ooro47i.png&lt;/a&gt;\n &lt;a href=&quot;\nhttp://i.imgur.com/czuQMWY.png&quot; rel=&quot;nofollow&quot; target=&quot;_NEW&quot;&gt;\nhttp://i.imgur.com/czuQMWY.png&lt;/a&gt;\n &lt;a href=&quot;\nhttp://i.imgur.com/hY6tfVL.png&quot; rel=&quot;nofollow&quot; target=&quot;_NEW&quot;&gt;\nhttp://i.imgur.com/hY6tfVL.png&lt;/a&gt;\n &lt;a href=&quot;\nhttp://i.imgur.com/26RJC08.png&quot; rel=&quot;nofollow&quot; target=&quot;_NEW&quot;&gt;\nhttp://i.imgur.com/26RJC08.png&lt;/a&gt;\n &lt;a href=&quot;\nhttp://i.imgur.com/RrmqPpI.png&quot; rel=&quot;nofollow&quot; target=&quot;_NEW&quot;&gt;\nhttp://i.imgur.com/RrmqPpI.png&lt;/a&gt;\n &lt;a href=&quot;\nhttp://i.imgur.com/ZMIyeXw.png&quot; rel=&quot;nofollow&quot; target=&quot;_NEW&quot;&gt;\nhttp://i.imgur.com/ZMIyeXw.png&lt;/a&gt;\n &lt;a href=&quot;\nhttp://i.imgur.com/P8tCAnE.png&quot; rel=&quot;nofollow&quot; target=&quot;_NEW&quot;&gt;\nhttp://i.imgur.com/P8tCAnE.png&lt;/a&gt;\n\n\nSAMPLE AND SCREENSHOTS INCLUDED\n\n    \n             \n             ********** PLEASE SEED AS LONG AS YOU CAN AFTER DOWNLOAD **********\n       \n                    ***** THANK YOU REGARDS - VIKKYMAXX (SilverRG) *****\n\t\t\t\t\n","torrent":{"xt":"urn:btih:002d4b40494af69bd7ef9616bd0135d63385eb96","amp;dn":"Kya+Dilli+Kya+Lahore++%282014%29+PreDvDRip+-+Xvid+%7BVikkyMaxx%7D%5BSilver","amp;tr":["udp%3A%2F%2Ftracker.openbittorrent.com%3A80","udp%3A%2F%2Fopen.demonii.com%3A1337","udp%3A%2F%2Ftracker.coppersurfer.tk%3A6969","udp%3A%2F%2Fexodus.desync.com%3A6969"],"infoHash":"002d4b40494af69bd7ef9616bd0135d63385eb96","infoHashBuffer":{"type":"Buffer","data":[0,45,75,64,73,74,246,155,215,239,150,22,189,1,53,214,51,133,235,150]},"announce":[],"urlList":[]}}